<svg xmlns="http://www.w3.org/2000/svg" viewBox="0 0 38.04 32">
  <title>battery</title>
  <path d="M4.77,4.64c0-1.12,0-2.18,0-3.24S5.14,0,6.14,0h5.73c1.05,0,1.38.36,1.4,1.45s0,2.11,0,3.21H24.81c0-1.08,0-2.14,0-3.19S25.15,0,26.28,0h5.46c1.19,0,1.52.33,1.53,1.5,0,1,0,2.05,0,3,.1.08.14.13.19.14C36.5,5.15,38,6.88,38,9.92c0,5.62-.08,11.23,0,16.84A5,5,0,0,1,32.82,32C23.63,32,14.43,32,5.24,32,2,32,0,30,0,26.76c0-5.49.07-11,0-16.48C-.06,7.3,1.41,5.06,4.77,4.64Zm31.05,15V10c0-2.17-.92-3.07-3.11-3.07H5.39c-2.25,0-3.23,1-3.23,3.2,0,2.88,0,5.77,0,8.65,0,.29,0,.58,0,.93H8.73L4.57,27.11H2a10.12,10.12,0,0,0,.91,1.81,2.73,2.73,0,0,0,2.4.82H32.73a6.64,6.64,0,0,0,1.09-.06A2.29,2.29,0,0,0,35.68,27H29l4.13-7.36ZM7,4.68h4V2.28H7Zm20-2.4V4.69h4V2.28ZM11.44,19.77,7.34,27h4.54L16,19.77ZM21.8,27h4.55l4.06-7.24H25.9Zm1.4-7.24H18.66L14.59,27H19.1ZM9,9.48c-1.49.12-1,1.4-1.16,2.32-.39,0-.75,0-1.11,0-.75,0-1.2.44-1.19,1.07s.44,1,1.2,1.1c.37,0,.75,0,1.1,0,.16,1-.28,2.16,1,2.26,1.67.14,1-1.39,1.31-2.21,1.82-.11,2.33-.34,2.27-1.13-.12-1.52-1.4-1-2.3-1.16C10,9.89,9.8,9.41,9,9.48Zm17.72,2.33a1,1,0,0,0-1.13,1A1,1,0,0,0,26.68,14c1.57,0,3.15,0,4.73,0a1,1,0,0,0,1.1-1.1c0-.63-.45-1-1.21-1.06s-1.46,0-2.18,0Z" fill="#1aa2dd"/>
</svg>
