<svg xmlns="http://www.w3.org/2000/svg" viewBox="0 0 46.57 73.17">
  <title>lamp-off</title>
  <path d="M30.19,60.45H16a2.16,2.16,0,0,0,0,4.31H30.19a2.16,2.16,0,0,0,0-4.31Zm0,6.25H16A2.16,2.16,0,0,0,16,71h.44a2.16,2.16,0,0,0,2.15,2.16H27.6A2.16,2.16,0,0,0,29.75,71h.44a2.16,2.16,0,0,0,0-4.31ZM23.29,0A23.29,23.29,0,0,0,9.51,42.07c3.05,3,3.94,11.57,4,14.62a2.15,2.15,0,0,0,2.15,2.1H30.88A2.16,2.16,0,0,0,33,56.7c.08-3.06,1-11.58,4-14.63A23.29,23.29,0,0,0,23.29,0ZM34.4,38.67l-.22.19c-3.91,3.71-5,11.72-5.34,15.62H17.73c-.32-3.9-1.43-11.91-5.34-15.62l-.22-.19a19,19,0,1,1,22.23,0Z" fill="#f07e0f" opacity="0.6"/>
</svg>
