<svg xmlns="http://www.w3.org/2000/svg" viewBox="0 0 96.04 96.04">
  <title>energy</title>
  <path d="M52.63,44h4.1c2.05,0,2.87,1.27,1.82,2.83L54.43,53,45.25,66.7c-1.23,1.82-1.77,1.58-1.19-.55l2.76-10.27c.57-2.12.12-3.86-1-3.86H39.3c-2,0-2.86-1.27-1.82-2.83L41.6,43l9.19-13.7c1.23-1.83,1.76-1.58,1.19.54L49.22,40.15c-.57,2.13-.13,3.87,1,3.87ZM93.49,56.1a5,5,0,0,1,2.35,5.69L91.59,72.1a5.07,5.07,0,0,1-5.71,2.35S80,72.64,76.3,76.3s-1.85,9.58-1.85,9.58a5.07,5.07,0,0,1-2.35,5.71L61.79,95.84a5,5,0,0,1-5.69-2.35S53.21,88,48,88s-8.08,5.47-8.08,5.47a5,5,0,0,1-5.69,2.35L23.93,91.59a5.08,5.08,0,0,1-2.35-5.71S23.4,80,19.73,76.3s-9.57-1.85-9.57-1.85A5.07,5.07,0,0,1,4.45,72.1L.19,61.79A5,5,0,0,1,2.55,56.1S8,53.21,8,48s-5.47-8.08-5.47-8.08A5,5,0,0,1,.19,34.25L4.45,23.93a5.08,5.08,0,0,1,5.71-2.35s5.91,1.82,9.57-1.85,1.85-9.57,1.85-9.57a5.08,5.08,0,0,1,2.35-5.71L34.25.19a5,5,0,0,1,5.69,2.36S42.83,8,48,8,56.1,2.55,56.1,2.55A5,5,0,0,1,61.79.19L72.1,4.45a5.07,5.07,0,0,1,2.35,5.71s-1.81,5.91,1.85,9.57,9.58,1.85,9.58,1.85a5.08,5.08,0,0,1,5.71,2.35l4.25,10.32a5,5,0,0,1-2.35,5.69S88,42.83,88,48,93.49,56.1,93.49,56.1ZM75,48A27,27,0,1,0,48,75,27,27,0,0,0,75,48Z" fill="#fff"/>
</svg>
