<svg xmlns="http://www.w3.org/2000/svg" viewBox="0 0 57 72.14">
  <title>fruit</title>
  <g>
    <ellipse cx="28.5" cy="45.14" rx="28.5" ry="27" fill="#f07e0f"/>
    <path d="M37.27,3.35C30,8.24,30,18.14,30,18.14a29.7,29.7,0,0,1,6.5-4c5.16-2,7.74-2.3,10-4,3.2-2.4,5-6,6.5-10C53,.14,43.85-1,37.27,3.35Z" fill="#37b5ae"/>
    <path d="M28.75,20.89s.5.5,1.5,0c0,0-.5-16.5-1.5-18s-2.5-2.5-4-1.5c-2.43,1.62,0,3,1,4.5S28.25,16.89,28.75,20.89Z" fill="#37b5ae"/>
    <path d="M32.83,43H29.72c-1.52,0-1.41-3.34.25-7.41l.22-.54c1.65-4.08,1-4.44-1.51-.81l-2.24,3.28-5.59,8.18c-.59.86-.17,1.57.94,1.57h5.49c1.52,0,1.41,3.33-.25,7.41l-.22.54c-1.65,4.08-1,4.44,1.51.81l2.24-3.28c2.48-3.64,5-7.31,5.59-8.18S36.32,43,35.21,43Z" fill="#fff"/>
  </g>
</svg>
