<svg xmlns="http://www.w3.org/2000/svg" viewBox="0 0 48.24 32">
  <title>fuelCell</title>
  <path d="M40.69,10.19V9.35H35.23V5.08a1.26,1.26,0,1,0-1.6-.77,1.28,1.28,0,0,0,.77.77V9.35h-21V5.08a1.25,1.25,0,1,0-.84,0V9.35H7.13v.84h5.45v21H7.13V32H40.69v-.84H35.23v-21Zm-20.56.89.9-.89h2.3l-3.2,3.2Zm0,3.47,4.39-4.36h2.31L20.13,16.9Zm7.53,15.72-.89.89h-2.3L27.68,28Zm0-3.51-4.39,4.4H21l6.68-6.67Zm0-3.67-7.55,7.55V28.36l7.55-7.55Zm0-3.49-7.55,7.55v-2.3l7.55-7.55Zm0-3.49-7.55,7.55V21.37l7.55-7.55Zm0-3.49-7.55,7.55V17.89l7.55-7.55ZM45,27.08l1.36,1-1.52.69,0-.44a7.93,7.93,0,0,1-4.69-3,7.74,7.74,0,0,1,1-10.46A7.59,7.59,0,0,1,46.34,13a7.53,7.53,0,0,0-7.33,7,7.24,7.24,0,0,0,5.92,7.6ZM8.06,25.29a8,8,0,0,1-4.7,3l0,.44L1.88,28l1.36-1,0,.41a7.2,7.2,0,0,0,4.3-2.51A7.25,7.25,0,0,0,9.2,19.87,7.45,7.45,0,0,0,6.93,15a7.54,7.54,0,0,0-5-2.09,7.63,7.63,0,0,1,5.19,1.93,7.72,7.72,0,0,1,2.51,5,7.78,7.78,0,0,1-1.54,5.47ZM.93,21.79a1.66,1.66,0,0,1-.68-.66,1.85,1.85,0,0,1,0-1.85,1.7,1.7,0,0,1,.68-.65,2.08,2.08,0,0,1,1.94,0,1.7,1.7,0,0,1,.68.65,1.78,1.78,0,0,1,.25.93,1.8,1.8,0,0,1-.25.93,1.7,1.7,0,0,1-.68.65,2.08,2.08,0,0,1-1.94,0Zm1.59-.5a1.26,1.26,0,0,0,.42-.44,1.34,1.34,0,0,0,0-1.26,1.05,1.05,0,0,0-.42-.44A1.22,1.22,0,0,0,1.88,19a1.2,1.2,0,0,0-.62.14,1.11,1.11,0,0,0-.42.44,1.34,1.34,0,0,0,0,1.26,1.17,1.17,0,0,0,.42.46,1.26,1.26,0,0,0,.63.16A1.37,1.37,0,0,0,2.52,21.29ZM5.87,22v.35H4.19v-.27l.9-.78a1.21,1.21,0,0,0,.21-.24.28.28,0,0,0,.06-.18.23.23,0,0,0-.11-.19.52.52,0,0,0-.32-.07.59.59,0,0,0-.52.21l-.32-.22a1,1,0,0,1,.35-.28A1.45,1.45,0,0,1,5,20.22a.92.92,0,0,1,.62.17.49.49,0,0,1,.21.43.51.51,0,0,1-.07.3,1.73,1.73,0,0,1-.31.35l-.57.5Zm39.85-3.54v3.47h-.84V20.26H43.2v1.67h-.83V18.58h.83v1.26h1.68v-1.4Zm2.52,3.47v.42H46.56v-.14l.84-.8a1.51,1.51,0,0,0,.21-.23.32.32,0,0,0,.06-.18.24.24,0,0,0-.11-.2.58.58,0,0,0-.32-.07.81.81,0,0,0-.31.05.44.44,0,0,0-.21.17l-.32-.23a.85.85,0,0,1,.35-.27,1.34,1.34,0,0,1,.52-.1,1.05,1.05,0,0,1,.63.17.56.56,0,0,1,.23.45.64.64,0,0,1-.08.3,1.45,1.45,0,0,1-.31.34l-.57.32ZM32.68,3.72,24.13,7l-1.06.42V2.22l-7.93,1.5L23.68.42,24.75,0V5.22Z" fill="#1aa2dd"/>
</svg>
