<svg xmlns="http://www.w3.org/2000/svg" viewBox="0 0 58.84 65">
  <title>lamp</title>
  <path d="M31,8.93H27.88V0H31Zm-10.45,2L16,3.17,13.38,4.71l4.46,7.74ZM3.17,16l7.74,4.47,1.54-2.67L4.71,13.38ZM8.93,27.88H0V31H8.93ZM3.17,42.8l1.54,2.66L12.45,41l-1.54-2.67ZM46.39,41l7.74,4.46,1.54-2.66-7.74-4.47Zm3.52-13.12V31h8.93V27.88ZM55.67,16l-1.54-2.66-7.74,4.46,1.54,2.67ZM45.46,4.71,42.8,3.17l-4.47,7.74L41,12.45Zm-11,51.2H24.34a1.54,1.54,0,0,0,0,3.08H34.5a1.54,1.54,0,0,0,0-3.08Zm0,4.47H24.34a1.54,1.54,0,1,0,0,3.08h.3A1.54,1.54,0,0,0,26.18,65h6.47a1.54,1.54,0,0,0,1.54-1.54h.31a1.54,1.54,0,0,0,0-3.08Zm11.71-31a16.67,16.67,0,0,1-6.8,13.41C37.23,45,36.6,51.05,36.54,53.23A1.55,1.55,0,0,1,35,54.73H24.15a1.53,1.53,0,0,1-1.54-1.5c-.06-2.18-.7-8.26-2.88-10.45A16.64,16.64,0,1,1,46.21,29.37Zm-3.08,0a13.56,13.56,0,1,0-21.5,11l.16.13c2.79,2.65,3.59,8.38,3.81,11.16h7.94c.23-2.78,1-8.51,3.81-11.16l.16-.13A13.62,13.62,0,0,0,43.13,29.37Z" fill="#f07e0f"/>
</svg>
