<svg xmlns="http://www.w3.org/2000/svg" viewBox="0 0 32 32">
  <title>solar</title>
  <path d="M31.42,15.14l-4.74-2L29.79,9a.92.92,0,0,0,.06-1,.91.91,0,0,0-.92-.46l-5.12.65.65-5.12A.91.91,0,0,0,24,2.15a.92.92,0,0,0-1,.06l-4.1,3.11-2-4.74a.93.93,0,0,0-1.72,0l-2,4.74L9,2.21a.92.92,0,0,0-1-.06.91.91,0,0,0-.46.92l.65,5.12L3.07,7.54A.94.94,0,0,0,2.21,9l3.11,4.1-4.74,2a.93.93,0,0,0,0,1.72l4.74,2L2.21,23a.92.92,0,0,0-.06,1,.91.91,0,0,0,.92.46l5.12-.65-.65,5.12a.91.91,0,0,0,.46.92.92.92,0,0,0,1-.06l4.1-3.11,2,4.74a.93.93,0,0,0,1.72,0l2-4.74L23,29.79a.92.92,0,0,0,1,.06.91.91,0,0,0,.46-.92l-.65-5.12,5.12.65a.91.91,0,0,0,.92-.46.92.92,0,0,0-.06-1l-3.11-4.1,4.74-2a.93.93,0,0,0,0-1.72ZM29,8.06a.38.38,0,0,1,.41.2.41.41,0,0,1,0,.46l-3,4a10.83,10.83,0,0,0-2.33-4ZM16,26.2A10.2,10.2,0,1,1,26.2,16,10.22,10.22,0,0,1,16,26.2ZM23.28,2.62a.41.41,0,0,1,.46,0,.38.38,0,0,1,.2.41l-.63,5a10.83,10.83,0,0,0-4-2.33ZM15.62.78a.41.41,0,0,1,.76,0L18.33,5.4a11,11,0,0,0-4.66,0ZM8.06,3a.38.38,0,0,1,.2-.41.41.41,0,0,1,.46,0l4,3A10.83,10.83,0,0,0,8.69,8ZM2.62,8.72a.41.41,0,0,1,0-.46A.38.38,0,0,1,3,8.06l5,.63a10.83,10.83,0,0,0-2.33,4ZM.78,16.38a.41.41,0,0,1,0-.76L5.4,13.67a11,11,0,0,0,0,4.66ZM3,23.94a.38.38,0,0,1-.41-.2.41.41,0,0,1,0-.46l3-4a10.83,10.83,0,0,0,2.33,4Zm5.71,5.44a.41.41,0,0,1-.46,0,.38.38,0,0,1-.2-.41l.63-5a10.83,10.83,0,0,0,4,2.33Zm7.66,1.84a.41.41,0,0,1-.76,0L13.67,26.6a11,11,0,0,0,4.66,0ZM23.94,29a.38.38,0,0,1-.2.41.41.41,0,0,1-.46,0l-4-3a10.83,10.83,0,0,0,4-2.33Zm5.44-5.71a.41.41,0,0,1,0,.46.38.38,0,0,1-.41.2l-5-.63a10.83,10.83,0,0,0,2.33-4Zm1.84-6.9h0L26.6,18.33a11,11,0,0,0,0-4.66l4.62,1.95a.41.41,0,0,1,0,.76ZM14.56,10.64h0l0-.07,0,0h0ZM16,7.08A8.92,8.92,0,1,0,24.92,16,8.93,8.93,0,0,0,16,7.08Zm0,17.19A8.27,8.27,0,1,1,24.27,16,8.28,8.28,0,0,1,16,24.27ZM18.81,15H15.58l1.6-5.21a.34.34,0,0,0-.19-.4.33.33,0,0,0-.41.15L12.91,16.5a.33.33,0,0,0,0,.32.35.35,0,0,0,.28.15h3.23l-1.6,5.21a.34.34,0,0,0,.19.4l.12,0a.32.32,0,0,0,.29-.17l3.67-6.93a.33.33,0,0,0,0-.32A.35.35,0,0,0,18.81,15Zm-2.37,4.09.73-2.38a.33.33,0,0,0-.31-.42H13.73l1.83-3.44-.73,2.38a.33.33,0,0,0,.31.42h3.13Z" fill="#f07e0f"/>
</svg>
