<svg xmlns="http://www.w3.org/2000/svg" viewBox="0 0 34.97 32">
  <title>wind</title>
  <path d="M18.42,19.82a.94.94,0,1,1-.94-.93A.94.94,0,0,1,18.42,19.82Zm16.23,9.92A2.23,2.23,0,0,1,33,30.87a2.67,2.67,0,0,1-.5,0c-3.26,0-9-4.44-13.47-8.37a3.13,3.13,0,0,1-1.53.41A3.09,3.09,0,0,1,16,22.54c-4.46,3.93-10.21,8.37-13.47,8.37a2.67,2.67,0,0,1-.5,0A2.23,2.23,0,0,1,.32,29.74a2.23,2.23,0,0,1-.15-2c1.13-3,8.27-5.94,14.2-7.93a3.12,3.12,0,0,1,1.53-2.66C14.66,11,13.66,3.34,15.67.87a2.33,2.33,0,0,1,3.63,0c2,2.47,1,10.13-.23,16.27a3.06,3.06,0,0,1,1.53,2.65c5.93,2,13.07,5,14.2,7.94A2.23,2.23,0,0,1,34.65,29.74Zm-17.86-13a3.11,3.11,0,0,1,1.39,0c1.62-8.07,1.76-13.64.39-15.33a1.39,1.39,0,0,0-2.17,0C15,3.15,15.17,8.72,16.79,16.78ZM15.2,22a3.9,3.9,0,0,1-.42-.56,3.36,3.36,0,0,1-.28-.65C6.71,23.37,1.81,26,1,28.06a1.35,1.35,0,0,0,.09,1.21,1.32,1.32,0,0,0,1,.67C4.27,30.29,9,27.38,15.2,22Zm3.38-.23a2.19,2.19,0,0,0-1.1-4.08,2.17,2.17,0,0,0-1.09.29,2.19,2.19,0,0,0,2.19,3.79Zm15.26,7.55a1.35,1.35,0,0,0,.09-1.21c-.77-2-5.67-4.69-13.46-7.32a3.15,3.15,0,0,1-.7,1.21c6.18,5.43,10.92,8.34,13.07,8A1.32,1.32,0,0,0,33.84,29.27ZM21.24,8.79v0a.43.43,0,0,0,0,0s0,0,0,0v0l0,.06h0l1.16,1.85a.45.45,0,0,0,.4.22.47.47,0,0,0,.25-.07.47.47,0,0,0,.14-.64l-.15-.26a11.21,11.21,0,0,1,5.5,11.38A.47.47,0,0,0,29,22h.07a.48.48,0,0,0,.46-.4,12.19,12.19,0,0,0-5.9-12.3h.25a.46.46,0,0,0,.47-.44.47.47,0,0,0-.44-.49l-2.19-.12h-.21l-.05,0h0l0,0,0,0,0,0,0,0s0,0,0,0l0,0s0,0,0,.05a.06.06,0,0,0,0,0,.11.11,0,0,0,0,0v0h0A.2.2,0,0,0,21.24,8.79ZM5.36,21.93h0a.36.36,0,0,0,.07.1l0,0,.07.05,0,0h0l.06,0,0,0h.27l.06,0H6l.07-.06,0,0,.07-.09h0l1-1.93A.48.48,0,0,0,7,19.37a.48.48,0,0,0-.64.2l-.15.28A11.31,11.31,0,0,1,7.75,14.2a11.12,11.12,0,0,1,5.6-4.83A.47.47,0,1,0,13,8.5a12.18,12.18,0,0,0-7.7,11.26l-.11-.2a.47.47,0,1,0-.83.42Zm20.05,7.25s0,0,0,0,0,0,0,0V29h0v0a.11.11,0,0,0,0-.05s0,0,0,0,0,0,0,0,0,0,0,0l0,0,0,0,0,0-.07-.06h0l-.07,0H25l-2.18.07a.48.48,0,0,0-.46.49.47.47,0,0,0,.47.45h.33a11.26,11.26,0,0,1-12.62-.92.47.47,0,0,0-.66.07.46.46,0,0,0,.08.66,12.17,12.17,0,0,0,13.6,1l-.13.19a.47.47,0,0,0,.14.65.5.5,0,0,0,.26.08.47.47,0,0,0,.39-.22l1.19-1.83h0l0-.06S25.41,29.19,25.41,29.18Z" fill="#1aa2dd"/>
</svg>
